<?xml version="1.0" standalone="no"?>
<!DOCTYPE svg PUBLIC "-//W3C//DTD SVG 20010904//EN"
 "http://www.w3.org/TR/2001/REC-SVG-20010904/DTD/svg10.dtd">
<svg version="1.0" xmlns="http://www.w3.org/2000/svg"
 width="1500.000000pt" height="1500.000000pt" viewBox="0 0 1500.000000 1500.000000"
 preserveAspectRatio="xMidYMid meet">

<g transform="translate(0.000000,1500.000000) scale(0.100000,-0.100000)"
fill="#000000" stroke="none">
<path d="M1510 9756 c0 -3 18 -44 39 -90 155 -335 423 -551 791 -638 93 -23
108 -23 725 -24 416 0 664 -4 730 -12 445 -53 711 -119 983 -248 176 -83 298
-169 444 -312 70 -69 128 -122 128 -119 0 17 -81 299 -105 367 -183 510 -591
884 -1110 1016 -238 61 -148 57 -1437 61 -654 2 -1188 1 -1188 -1z"/>
<path d="M4350 8725 c0 -3 21 -37 47 -77 148 -230 203 -426 203 -719 0 -336
-85 -579 -268 -771 -128 -134 -279 -217 -476 -260 -80 -18 -138 -21 -463 -25
l-371 -5 -5 224 c-4 245 -12 289 -71 413 -110 233 -331 378 -610 401 l-86 7 0
-907 0 -907 773 4 c837 4 837 4 1077 63 634 156 1076 630 1217 1304 71 341
-13 646 -243 876 -86 86 -236 188 -365 248 -92 42 -359 140 -359 131z"/>
<path d="M5634 7196 c-62 -29 -120 -86 -148 -146 -20 -42 -21 -61 -21 -305 0
-251 1 -262 23 -302 35 -66 79 -110 140 -140 l57 -28 345 0 345 0 57 28 c74
36 134 104 154 173 12 43 15 100 12 296 l-3 243 -31 55 c-34 61 -105 121 -164
139 -24 7 -153 11 -376 11 -335 0 -340 0 -390 -24z m754 -105 c92 -47 102 -81
102 -343 0 -185 -3 -218 -19 -253 -20 -44 -69 -92 -104 -100 -12 -3 -171 -5
-353 -3 l-331 3 -36 28 c-70 53 -72 64 -72 328 l0 235 27 41 c15 23 44 49 70
62 41 20 56 21 361 21 292 0 321 -2 355 -19z"/>
<path d="M6840 6745 l0 -475 55 0 55 0 0 356 c0 217 4 353 9 349 5 -3 123
-163 262 -355 225 -312 256 -350 280 -350 24 0 56 39 286 357 l258 358 3 -358
2 -357 55 0 55 0 0 475 0 475 -42 0 -43 0 -285 -395 c-156 -217 -287 -395
-290 -395 -3 1 -133 178 -289 395 l-285 395 -43 0 -43 0 0 -475z"/>
<path d="M8650 6754 c-173 -257 -316 -470 -318 -475 -2 -5 26 -9 62 -9 l66 0
72 110 73 110 391 0 391 0 74 -110 74 -109 68 -1 68 0 -187 278 c-483 715
-452 672 -487 672 -31 0 -42 -15 -347 -466z m507 78 l153 -227 -307 -3 c-168
-1 -308 0 -311 2 -5 6 299 456 307 456 3 -1 75 -103 158 -228z"/>
<path d="M9830 6745 l0 -475 60 0 60 0 0 475 0 475 -60 0 -60 0 0 -475z"/>
<path d="M10220 6745 l0 -475 55 0 55 0 0 385 c0 212 3 385 8 385 4 -1 219
-174 477 -385 431 -353 473 -385 508 -385 l37 0 0 475 0 475 -55 0 -55 0 -2
-385 -3 -386 -473 386 c-445 362 -475 385 -512 385 l-40 0 0 -475z"/>
<path d="M11630 6745 l0 -475 55 0 55 0 0 210 0 210 401 0 c443 0 447 0 492
-64 20 -28 22 -44 25 -193 l3 -163 55 0 54 0 0 159 c0 174 -6 202 -57 274
l-34 48 27 32 c56 67 64 98 64 275 l0 162 -54 0 -55 0 -3 -159 c-3 -178 -9
-195 -79 -236 -32 -19 -52 -20 -434 -20 l-400 0 -3 208 -2 207 -55 0 -55 0 0
-475z"/>
<path d="M12980 6867 c0 -402 2 -413 76 -496 26 -29 65 -58 96 -72 53 -24 56
-24 398 -24 330 0 347 1 391 21 66 31 114 78 146 142 l28 57 3 363 3 362 -55
0 -55 0 -3 -352 c-3 -394 -3 -390 -75 -445 l-36 -28 -331 -3 c-182 -2 -341 0
-353 3 -35 8 -84 56 -104 100 -17 36 -19 72 -19 383 l0 342 -55 0 -55 0 0
-353z"/>
</g>
</svg>
